<svg width="39" height="38" viewBox="0 0 39 38" fill="none" xmlns="http://www.w3.org/2000/svg">
<path d="M19.698 0.487305C9.28918 0.487305 0.851562 8.81779 0.851562 19.0944C0.851562 29.3711 9.28918 37.7015 19.698 37.7015C30.1068 37.7015 38.5444 29.3711 38.5444 19.0944C38.5444 8.81779 30.1068 0.487305 19.698 0.487305ZM31.5281 23.9428C31.4532 24.2605 31.4688 24.6059 31.4282 24.9329C30.8752 29.2909 27.7857 30.8422 23.6559 30.8916C23.5778 30.8916 23.4466 30.8607 23.3967 30.9378C20.8351 30.9378 18.1954 31.018 15.6432 30.9378C13.7657 30.8792 11.8789 30.7096 10.2982 29.6055C7.98964 27.9893 7.58979 25.5744 7.50857 22.9497C7.68038 19.7606 7.22742 16.2816 7.65851 13.1295C8.27079 8.63582 11.4946 7.34662 15.6432 7.21708H23.3498L25.5303 7.36204C28.4324 7.7414 30.6066 9.45314 31.272 12.3122L31.5313 14.0733V23.9428H31.5281Z" fill="#FFC0B8"/>
<path d="M23.8432 9.44048C21.1535 9.32328 18.1889 9.31095 15.493 9.40656C12.4472 9.5145 10.2261 10.1869 9.82316 13.5456C9.57325 15.6182 9.71695 17.8943 9.72632 19.9793C9.74194 23.9055 9.04844 28.2296 14.2591 28.7138C14.8776 28.7724 15.5211 28.7416 16.1397 28.7601C18.8512 28.8402 21.6127 28.8711 24.3149 28.7169C27.8386 28.5164 29.1319 27.1378 29.3193 23.6896C29.4849 20.6609 29.4787 17.5427 29.3193 14.514C29.1163 10.6711 27.6106 9.60703 23.8432 9.44357V9.44048ZM24.8928 22.1475C22.5592 26.1292 16.6988 26.1847 14.2591 22.2678C11.7818 18.2891 14.6308 13.1107 19.3448 12.9719C24.1805 12.83 27.3232 17.9961 24.8928 22.1475ZM26.1455 14.1655C24.0993 14.3598 23.965 11.3434 25.958 11.3188C27.7949 11.2972 27.8886 13.999 26.1455 14.1655Z" fill="#FFC0B8"/>
<path d="M19.1109 15.1529C16.3462 15.4089 14.7187 18.4283 15.962 20.8679C17.3615 23.616 21.4069 23.7609 22.9814 21.0992C24.6558 18.2679 22.4066 14.8475 19.1109 15.1529Z" fill="#FFC0B8"/>
</svg>
