<svg width="38" height="37" viewBox="0 0 38 37" fill="none" xmlns="http://www.w3.org/2000/svg">
<path d="M17.4853 0.0866971C32.1207 -0.958855 42.0921 14.7398 34.5854 27.2988C27.4755 39.1946 9.89734 39.0744 2.94357 27.0983C-3.75092 15.5726 4.14627 1.04281 17.4853 0.0897813V0.0866971ZM23.077 7.30069H19.5627L19.319 7.54126V22.8729C19.319 23.3078 18.4693 24.2948 18.0913 24.5662C17.0323 25.328 15.8858 25.4359 14.7331 24.816C11.3437 22.9994 13.5617 17.9844 17.1948 19.0793V15.4492C16.2107 14.8786 14.352 15.369 13.3211 15.8224C6.26114 18.9282 9.21321 29.8464 17.0698 28.8841C19.5002 28.5849 23.077 25.9356 23.077 23.3572V14.7244C24.0267 14.9804 24.8108 15.5757 25.7823 15.844C26.5977 16.0691 27.4599 16.2203 28.3064 16.1771V12.4668C25.3856 12.4884 23.1833 10.1135 23.077 7.30378V7.30069Z" fill="#FFC0B8"/>
</svg>
