<svg width="36" height="36" viewBox="0 0 36 36" fill="none" xmlns="http://www.w3.org/2000/svg">
<path d="M4.76742 0.835221L31.0893 0.810547C33.4541 1.06037 35.3128 2.91707 35.5158 5.26108V30.9218C35.3097 33.2936 33.4072 35.175 31.0018 35.3785H5.01109C2.61195 35.1565 0.700123 33.3059 0.49707 30.9218L0.503315 5.17781C0.746978 2.93558 2.49948 1.13439 4.76742 0.835221ZM8.3224 6.59655C5.39845 7.01292 5.6796 11.9384 9.37204 11.3216C12.0679 10.8713 11.7868 6.10307 8.3224 6.59655ZM11.1714 13.3232H6.33874V29.6141H11.1714V13.3232ZM19.0123 13.3232H14.0891V29.6141H19.0123V19.3992C19.0123 19.3436 19.2966 18.7669 19.3591 18.662C20.4993 16.719 23.5107 16.9811 24.4354 18.9951C24.5541 19.2511 24.8446 20.2412 24.8446 20.4786V29.6141H29.6773C29.6117 25.9192 29.8179 22.2027 29.5617 18.5232C29.015 14.9301 26.4784 12.9994 22.7954 13.3232C21.146 13.4682 19.9433 14.3811 19.0092 15.6611V13.3202L19.0123 13.3232Z" fill="#FFC0B8"/>
</svg>
