<svg width="37" height="36" viewBox="0 0 37 36" fill="none" xmlns="http://www.w3.org/2000/svg">
<path d="M21.3331 35.7272V23.3533H25.5097L26.3157 18.2766C26.3219 18.2489 26.2813 18.1965 26.2657 18.1965H21.33V14.6218C21.3862 14.1438 21.4862 13.6781 21.7423 13.2648C22.7014 11.7072 24.9724 12.1946 26.5187 12.1113V7.75327C26.0564 7.68234 25.5878 7.60523 25.1192 7.5528C22.2359 7.24129 19.137 7.20428 17.1533 9.63157C15.179 12.0465 15.8101 15.3158 15.7038 18.1965H11.1555V23.3533H15.7038V35.7272C7.86914 34.586 1.64635 28.1863 0.681074 20.4356C-0.456021 11.3217 5.61681 2.79693 14.6886 0.872373C26.7562 -1.68753 37.6804 8.08637 36.3933 20.1734C35.5593 28.0135 29.2396 34.5922 21.3331 35.7272Z" fill="#FFC0B8"/>
</svg>
