<svg width="171" height="54" viewBox="0 0 171 54" fill="none" xmlns="http://www.w3.org/2000/svg">
<g id="Ebene_1" clip-path="url(#clip0_82_461)">
<path id="Vector" d="M64.3701 33.8551C63.1953 34.7168 62.0206 34.3242 61.7282 32.9272C61.5743 32.1879 61.5281 31.4129 61.523 30.6583C61.5024 26.9209 61.3588 6.66394 61.3588 6.66394L56.6701 9.35094V31.4027C56.6547 33.9622 57.0805 34.9157 57.0907 34.9259C58.1321 36.4402 58.9067 36.6594 60.261 36.7461C62.7285 36.9041 64.9959 35.14 65.5243 32.9476C65.2832 33.1362 64.842 33.5135 64.3701 33.8551Z" fill="#FF3E24"/>
<path id="Vector_2" d="M97.1756 32.5346C96.6575 34.6964 94.4465 36.4402 92.0149 36.3382C90.7222 36.2821 89.6295 35.7518 89.1062 34.5741C88.6702 33.5849 88.2906 32.4836 88.2598 31.4231C88.147 27.6348 88.1931 23.8414 88.1829 20.0479C88.1829 19.7471 88.1829 20.4711 88.1829 20.0479C84.2841 21.1238 80.3239 21.6132 77.1844 24.1626C75.3273 25.6718 74.2706 26.8139 74.681 29.3428C75.0708 31.7392 76.6201 33.2637 79.0722 33.6308C81.5909 34.003 83.8635 33.3555 85.9873 32.04C86.2284 31.8922 86.4592 31.7341 86.8234 31.7239C86.1822 32.3 85.5615 32.9017 84.8946 33.4523C81.9449 35.8844 78.6053 37.0724 74.7477 36.3943C72.1365 35.9354 70.3103 34.467 69.6229 31.8871C68.915 29.2154 69.587 26.8394 71.6287 24.9172C73.6242 23.0409 76.1122 22.0364 78.6772 21.2512C81.555 20.3692 84.4739 19.6044 87.3826 18.8243C87.9623 18.6662 88.2444 18.4521 88.1931 17.7994C88.07 16.1118 88.1623 14.3935 87.9058 12.7263C87.0697 7.30127 82.4682 6.822 78.4258 8.70341C76.933 9.39683 75.353 11.0641 75.5684 12.8231C75.6454 13.4299 75.9019 14.0162 76.0968 14.6026C76.538 15.9333 76.2764 17.0601 75.3273 17.8402C74.368 18.6254 72.8753 18.7478 71.798 18.1308C70.8284 17.5751 70.3206 16.3871 70.4847 15.1226C70.6643 13.7256 71.208 12.4815 72.2289 11.523C76.3328 7.68367 81.1908 5.99602 86.7927 6.96476C90.4554 7.597 92.7023 10.2228 93.0101 13.9499C93.1537 15.6376 93.1486 17.3406 93.1589 19.0384C93.1794 22.7757 93.1589 26.5131 93.1743 30.2453C93.1743 31.005 93.2256 31.7749 93.3794 32.5142C93.6719 33.9112 94.8466 34.3038 96.0213 33.4421C96.4933 33.1005 96.9345 32.7232 97.1756 32.5346Z" fill="#FF3E24"/>
<path id="Vector_3" d="M49.5293 28.4047C49.6011 28.3078 49.755 28.3945 49.7037 28.5067C47.9339 32.4633 44.8919 34.9871 40.4186 35.706C32.6673 36.9552 26.0651 31.5455 25.111 23.6477C24.6493 19.8135 25.229 16.2138 27.5528 13.022C31.3438 7.8163 38.9412 5.85841 44.4045 8.70346C47.703 10.4217 49.3549 13.2974 49.9397 16.8409C50.0936 17.7791 50.109 19.6656 50.1962 20.6955H29.5894C29.1738 24.3666 30.8308 29.3582 35.9966 31.5251C40.2288 33.3045 46.2102 32.8457 49.5241 28.4098L49.5293 28.4047ZM29.5535 19.2985C32.5237 19.2985 35.4426 19.3291 38.3564 19.2832C39.4285 19.2679 40.516 19.1557 41.5677 18.9569C45.7126 18.1615 47.2926 15.1074 44.7893 11.7117C42.9476 9.21333 39.4695 8.35166 36.0838 9.41728C31.3848 10.8908 29.5535 15.1431 29.5535 19.3036V19.2985Z" fill="#FF3E24"/>
<path id="Vector_4" d="M170.328 28.4047C170.4 28.3078 170.554 28.3945 170.503 28.5067C168.733 32.4633 165.691 34.9871 161.217 35.706C153.466 36.9552 146.864 31.5455 145.91 23.6477C145.448 19.8135 146.028 16.2138 148.352 13.022C152.143 7.8163 159.74 5.85841 165.203 8.70346C168.502 10.4217 170.154 13.2974 170.738 16.8409C170.892 17.7791 170.908 19.6656 170.995 20.6955H150.388C149.973 24.3666 151.63 29.3582 156.795 31.5251C161.028 33.3045 167.009 32.8457 170.323 28.4098L170.328 28.4047ZM150.352 19.2985C153.322 19.2985 156.241 19.3291 159.155 19.2832C160.227 19.2679 161.315 19.1557 162.367 18.9569C166.511 18.1615 168.091 15.1074 165.588 11.7117C163.746 9.21333 160.268 8.35166 156.883 9.41728C152.184 10.8908 150.352 15.1431 150.352 19.3036V19.2985Z" fill="#FF3E24"/>
<g id="Group">
<path id="Vector_5" d="M128.54 35.6396H117.054C117.141 35.558 117.177 35.502 117.223 35.4918C119.08 34.9258 119.988 33.5594 120.009 31.7544C120.076 26.2836 120.04 20.8076 120.009 15.3367C120.009 14.628 119.834 13.8989 119.64 13.2106C119.044 11.1048 117.208 9.93213 114.802 10.08C112.217 10.238 110.041 11.3903 107.984 12.8384C107.851 12.9301 107.723 13.0321 107.497 13.0576C107.62 12.9097 107.733 12.7517 107.866 12.6191C110.288 10.2075 112.966 8.14759 116.403 7.44398C117.706 7.17885 119.147 7.17885 120.46 7.41848C122.912 7.86207 124.374 9.6619 124.713 12.456C124.923 14.215 125.005 15.9995 125.026 17.7739C125.077 22.2199 125.031 26.666 125.077 31.112C125.103 33.5441 126.052 34.7779 128.535 35.6498L128.54 35.6396Z" fill="#FF3E24"/>
<path id="Vector_6" d="M109.77 35.6193C107.533 34.9768 106.676 33.5543 106.563 31.6066C106.512 30.7755 106.456 29.9444 106.456 29.1134C106.445 22.0619 106.456 15.0104 106.456 7.95389V6.83728C104.768 7.9131 103.162 8.93283 101.567 9.94747C101.567 14.4343 101.567 18.9874 101.567 19.7777C101.567 22.1333 101.567 29.5518 101.567 35.6193H109.775H109.77Z" fill="#FF3E24"/>
</g>
<path id="Vector_7" d="M15.4718 23.0918C14.569 21.9243 13.702 20.7363 12.871 19.5228C12.3939 18.8345 12.3529 18.1104 12.9992 17.4374C14.8255 15.5254 16.5953 13.5675 18.4626 11.6963C19.9092 10.2381 21.5661 9.03482 23.5052 8.26492C23.8592 8.12725 24.2234 8.01508 24.5825 7.89272C24.5723 7.85703 24.5569 7.82134 24.5466 7.78564H13.4712C14.1073 8.01508 14.5279 8.14255 14.9383 8.31591C17.2468 9.28465 17.2314 10.4828 15.7745 12.4968C15.6257 12.7059 15.4667 12.9047 15.2923 13.0934C13.0967 15.3929 10.896 17.6873 8.69011 19.9817C8.27972 20.4048 7.84367 20.8025 7.55127 21.0881C8.17712 21.6336 11.8501 25.682 12.8043 26.8802L19.7296 35.8844H25.8394C22.5613 31.8565 17.5135 25.7381 15.477 23.0969L15.4718 23.0918Z" fill="#FF3E24"/>
<g id="Group_2">
<path id="Vector_8" d="M139.374 1.87121H127.509L128.802 0H140.667L139.374 1.87121Z" fill="#FF3E24"/>
<path id="Vector_9" d="M143.329 35.6397C143.329 35.6397 140.216 34.314 139.779 29.868C139.764 29.4805 139.728 29.093 139.728 28.7055C139.718 21.6591 139.723 14.6128 139.723 7.57152V6.33765C138.015 7.42366 136.378 8.46889 134.747 9.50902C134.747 13.5319 134.747 18.396 134.747 19.5228C134.747 22.373 134.757 30.2759 134.747 35.6397H143.34H143.329Z" fill="#FF3E24"/>
</g>
<path id="Vector_10" d="M7.35114 35.6397C7.35114 35.6397 4.68873 33.1872 4.51944 29.3479C4.51944 29.1338 4.49379 28.9196 4.49379 28.7055C4.48353 21.6591 4.48866 7.78564 4.48866 7.78564L0.0051299 7.82134C0.0051299 7.82134 0.0102598 30.2759 0 35.6397H7.35114Z" fill="#FF3E24"/>
<g id="Group_3">
<path id="Vector_11" d="M41.6445 53.9032V47.3463H44.5275C45.2457 47.3463 45.8716 47.484 46.4102 47.7593C46.9488 48.0346 47.3695 48.417 47.6722 48.9014C47.9748 49.3909 48.1236 49.9619 48.1236 50.6248C48.1236 51.2876 47.9748 51.8535 47.6722 52.343C47.3695 52.8325 46.9488 53.2149 46.4102 53.4902C45.8716 53.7655 45.2406 53.9032 44.5275 53.9032H41.6445ZM42.8706 52.8733H44.4711C44.9687 52.8733 45.3945 52.7815 45.7587 52.5928C46.1178 52.4042 46.3999 52.1442 46.6 51.8076C46.8001 51.4711 46.8975 51.0785 46.8975 50.6299C46.8975 50.1812 46.8001 49.7784 46.6 49.447C46.3999 49.1156 46.1229 48.8504 45.7587 48.6669C45.3996 48.4782 44.9687 48.3864 44.4711 48.3864H42.8706V52.8835V52.8733Z" fill="#FF3E24"/>
<path id="Vector_12" d="M57.2497 52.8835H60.974V53.9032H56.0288V47.3463H60.8458V48.366H57.2549V52.8784L57.2497 52.8835ZM57.1574 50.0741H60.4354V51.0785H57.1574V50.0741Z" fill="#FF3E24"/>
<path id="Vector_13" d="M70.9773 54C70.4643 54 69.9719 53.9286 69.4999 53.7808C69.028 53.6329 68.6535 53.4443 68.3765 53.2148L68.8022 52.2665C69.0639 52.4704 69.3922 52.6438 69.7821 52.7814C70.1719 52.9191 70.5721 52.9854 70.9773 52.9854C71.321 52.9854 71.6032 52.9497 71.8186 52.8732C72.0341 52.7967 72.188 52.6948 72.2906 52.5673C72.3932 52.4398 72.4394 52.292 72.4394 52.1339C72.4394 51.9351 72.3675 51.7719 72.2239 51.6495C72.0803 51.5272 71.8904 51.4303 71.6647 51.3589C71.439 51.2875 71.1825 51.2213 70.9004 51.155C70.6234 51.0938 70.3412 51.0173 70.0642 50.9357C69.7872 50.8491 69.5307 50.742 69.2998 50.6094C69.069 50.4768 68.8843 50.2933 68.7407 50.069C68.5971 49.8446 68.5252 49.5591 68.5252 49.2073C68.5252 48.8555 68.6227 48.5241 68.8125 48.2283C69.0023 47.9326 69.2947 47.693 69.6897 47.5145C70.0796 47.3361 70.5823 47.2494 71.1825 47.2494C71.5775 47.2494 71.9725 47.3004 72.3624 47.3973C72.7523 47.4992 73.0908 47.642 73.3781 47.8255L72.9934 48.7739C72.6958 48.6005 72.3932 48.468 72.0803 48.3864C71.7673 48.2997 71.4647 48.2589 71.1774 48.2589C70.8388 48.2589 70.5618 48.2997 70.3515 48.3813C70.1412 48.4629 69.9873 48.5699 69.8898 48.6974C69.7923 48.83 69.741 48.9778 69.741 49.1461C69.741 49.3449 69.8128 49.5081 69.9513 49.6305C70.095 49.7528 70.2797 49.8497 70.5054 49.916C70.7311 49.9823 70.9927 50.0537 71.2749 50.1199C71.557 50.1862 71.8392 50.2576 72.1162 50.3392C72.3932 50.4208 72.6497 50.5278 72.8805 50.6553C73.1114 50.7879 73.296 50.9663 73.4345 51.1907C73.5782 51.415 73.6449 51.7005 73.6449 52.0421C73.6449 52.3837 73.5474 52.7152 73.3576 53.0109C73.1678 53.3066 72.8703 53.5462 72.4753 53.7247C72.0803 53.9032 71.5775 53.9898 70.9773 53.9898V54Z" fill="#FF3E24"/>
<path id="Vector_14" d="M81.4578 53.9032V47.3463H82.6838V53.9032H81.4578Z" fill="#FF3E24"/>
<path id="Vector_15" d="M94.1439 54C93.6309 54 93.1538 53.9184 92.7229 53.7502C92.292 53.5819 91.9175 53.3525 91.5994 53.0466C91.2814 52.7458 91.03 52.3888 90.8556 51.9759C90.6812 51.5629 90.594 51.1142 90.594 50.6247C90.594 50.1352 90.6812 49.6866 90.8556 49.2736C91.03 48.8606 91.2814 48.5037 91.6046 48.2028C91.9278 47.902 92.3074 47.6675 92.7383 47.4992C93.1692 47.3361 93.6463 47.2494 94.1593 47.2494C94.7184 47.2494 95.2212 47.3412 95.6726 47.5196C96.124 47.7032 96.4985 47.9683 96.8063 48.315L96.0317 49.0645C95.7752 48.8096 95.4982 48.6209 95.1955 48.4986C94.898 48.3762 94.5697 48.315 94.2106 48.315C93.8515 48.315 93.5437 48.3711 93.2513 48.4833C92.9537 48.5954 92.7024 48.7535 92.4869 48.9625C92.2715 49.1665 92.1073 49.4112 91.9945 49.6917C91.8765 49.9721 91.82 50.2831 91.82 50.6196C91.82 50.9561 91.8765 51.2569 91.9945 51.5374C92.1124 51.8178 92.2766 52.0625 92.4869 52.2716C92.7024 52.4806 92.9537 52.6438 93.241 52.756C93.5283 52.8681 93.8515 52.9242 94.2003 52.9242C94.5286 52.9242 94.8415 52.8732 95.1493 52.7712C95.452 52.6693 95.7444 52.4959 96.0214 52.2512L96.7191 53.1587C96.3754 53.4341 95.9753 53.6431 95.5187 53.7808C95.0621 53.9235 94.6004 53.9898 94.1387 53.9898L94.1439 54ZM95.5649 53.0058V50.5533H96.7242V53.1638L95.5649 53.0058Z" fill="#FF3E24"/>
<path id="Vector_16" d="M104.932 53.9032V47.3463H105.943L110.077 52.394H109.58V47.3463H110.796V53.9032H109.785L105.65 48.8555H106.148V53.9032H104.932Z" fill="#FF3E24"/>
<path id="Vector_17" d="M121.209 54C120.696 54 120.204 53.9286 119.732 53.7808C119.26 53.6329 118.885 53.4443 118.608 53.2148L119.034 52.2665C119.296 52.4704 119.624 52.6438 120.014 52.7814C120.404 52.9191 120.804 52.9854 121.209 52.9854C121.553 52.9854 121.835 52.9497 122.051 52.8732C122.266 52.7967 122.42 52.6948 122.523 52.5673C122.625 52.4398 122.671 52.292 122.671 52.1339C122.671 51.9351 122.599 51.7719 122.456 51.6495C122.312 51.5272 122.122 51.4303 121.897 51.3589C121.671 51.2875 121.414 51.2213 121.132 51.155C120.855 51.0938 120.573 51.0173 120.296 50.9357C120.019 50.8491 119.763 50.742 119.532 50.6094C119.301 50.4768 119.116 50.2933 118.973 50.069C118.829 49.8446 118.757 49.5591 118.757 49.2073C118.757 48.8555 118.855 48.5241 119.044 48.2283C119.234 47.9326 119.527 47.693 119.922 47.5145C120.312 47.3361 120.814 47.2494 121.414 47.2494C121.809 47.2494 122.204 47.3004 122.594 47.3973C122.984 47.4992 123.323 47.642 123.61 47.8255L123.225 48.7739C122.928 48.6005 122.625 48.468 122.312 48.3864C121.999 48.2997 121.697 48.2589 121.409 48.2589C121.071 48.2589 120.794 48.2997 120.583 48.3813C120.373 48.4629 120.219 48.5699 120.122 48.6974C120.024 48.83 119.973 48.9778 119.973 49.1461C119.973 49.3449 120.045 49.5081 120.183 49.6305C120.327 49.7528 120.512 49.8497 120.737 49.916C120.963 49.9823 121.225 50.0537 121.507 50.1199C121.789 50.1862 122.071 50.2576 122.348 50.3392C122.625 50.4208 122.882 50.5278 123.112 50.6553C123.343 50.7879 123.528 50.9663 123.666 51.1907C123.81 51.415 123.877 51.7005 123.877 52.0421C123.877 52.3837 123.779 52.7152 123.59 53.0109C123.4 53.3066 123.102 53.5462 122.707 53.7247C122.312 53.9032 121.809 53.9898 121.209 53.9898V54Z" fill="#FF3E24"/>
</g>
</g>
<defs>
<clipPath id="clip0_82_461">
<rect width="171" height="54" fill="white"/>
</clipPath>
</defs>
</svg>
