<svg width="185" height="175" viewBox="0 0 185 175" fill="none" xmlns="http://www.w3.org/2000/svg">
<path d="M12.624 20.4042C13.1476 18.9968 13.7019 17.7905 14.3333 16.5687C14.9492 15.3624 15.6268 14.1715 16.3813 13.0426C17.8596 10.7536 19.6458 8.58846 21.7247 6.65526L21.5245 6.45421C24.0807 4.45915 26.9603 2.71153 30.1632 1.70627C31.7493 1.18044 33.3969 0.871129 35.0138 0.654611C36.6615 0.51542 38.2937 0.484489 39.8798 0.654611C43.0673 0.979388 46.0547 1.83 48.8111 3.00538C50.197 3.56214 51.5213 4.24263 52.8301 4.87672L56.3872 6.6398C65.9345 11.2485 75.8667 15.2541 85.9836 18.5328C96.1006 21.8425 106.433 24.5644 116.843 26.2656C122.048 27.1008 127.268 27.6575 132.442 27.9205C133.735 28.0133 135.013 27.9669 136.307 28.0132C137.585 28.0442 138.863 28.0596 140.126 27.9669C141.419 27.905 142.559 27.8741 143.991 27.7813C145.423 27.6575 146.87 27.5957 148.333 27.5493C154.154 27.472 160.144 27.673 166.504 29.5134C169.676 30.4568 172.987 31.8023 176.159 34.2459C177.729 35.4677 179.254 36.9678 180.547 38.7618C181.81 40.5558 182.903 42.6128 183.55 44.778C184.258 46.9431 184.536 49.1393 184.613 51.2735C184.613 53.3614 184.443 55.4028 184.074 57.2896C183.365 61.0787 182.072 64.3883 180.64 67.4196C179.208 70.4354 177.498 73.1728 175.604 75.6318C175.142 76.2659 174.65 76.8381 174.172 77.4413L172.802 79.1425C172.14 80.024 171.385 80.8592 170.785 81.7717C165.564 88.8858 162.962 97.2218 161.715 106.903C161.083 111.759 160.791 116.909 160.39 122.477C159.913 128.014 159.451 134.107 157.495 140.68C156.525 143.959 155.155 147.361 153.215 150.594C152.26 152.202 151.09 153.81 149.965 155.202C148.888 156.501 147.763 157.723 146.609 158.914C141.958 163.6 136.63 167.451 130.594 170.281C124.558 173.081 117.674 174.859 110.36 174.55C106.726 174.395 102.999 173.622 99.5499 172.261C96.0852 170.9 92.9131 168.967 90.1721 166.693C87.4619 164.389 85.2137 161.806 83.2427 159.115C81.4102 156.393 79.7471 153.625 78.4998 150.795C77.8223 149.387 77.2525 147.964 76.7136 146.542C76.1284 145.119 75.6973 143.696 75.2507 142.273C74.7579 140.85 74.4192 139.427 74.0496 138.005C73.6492 136.551 73.3567 135.221 73.0487 133.891C71.8322 128.555 70.6927 123.204 69.5686 117.915C68.4445 112.626 67.3358 107.367 66.0115 102.387C64.6718 97.4383 63.0241 92.7213 60.4525 89.5663C59.159 87.9888 57.6192 86.7361 55.6789 85.7618C53.7387 84.8184 51.4443 84.1534 49.0421 83.6585C44.1453 82.7615 38.9559 82.4985 33.5355 82.4367C30.8099 82.4367 28.0844 82.5913 25.2972 82.4986C22.51 82.4058 19.692 82.2047 16.7817 81.7253C13.8867 81.2149 10.7916 80.488 7.72722 78.6476C6.95728 78.23 6.21814 77.596 5.4944 77.0237C4.81686 76.3432 4.10852 75.6937 3.58496 74.874C2.41465 73.312 1.72171 71.5334 1.25975 69.8322C0.412818 66.3989 0.551407 63.2439 0.828584 60.29C1.13656 57.3051 1.72171 54.5213 2.36846 51.7529C3.69275 46.2627 5.35581 40.9889 7.11127 35.7924C8.86673 30.596 10.7608 25.4305 12.6086 20.4351L12.624 20.4042ZM21.8171 23.8994C19.7074 28.9721 17.6902 33.9056 15.7962 38.901C13.9021 43.8809 12.1159 48.8918 10.73 53.8872C10.0524 56.3772 9.43648 58.8671 9.11311 61.2797C8.77434 63.6769 8.68194 66.0277 9.08231 67.8836C9.29789 68.796 9.57507 69.5848 10.0524 70.1879C10.4682 70.8375 11.0687 71.3633 11.8541 71.8273C13.4248 72.7552 15.673 73.3738 18.0752 73.7296C20.4928 74.1007 23.0644 74.2708 25.6668 74.41C28.2691 74.5492 30.9331 74.7657 33.5971 74.7967C36.2303 74.8121 39.0483 74.6884 41.82 74.7348C44.6226 74.7812 47.456 74.9359 50.3509 75.2761C53.2613 75.6473 56.2641 76.2505 59.2668 77.4413C62.285 78.6167 65.2415 80.5344 67.5975 82.9625C69.9843 85.3751 71.6936 88.128 73.0795 90.819C74.4808 93.5255 75.5587 96.232 76.5596 98.8921C78.546 104.212 80.1629 109.44 81.8106 114.621C83.4428 119.802 85.0751 124.921 86.7536 130.009C87.1693 131.292 87.6005 132.576 88.0317 133.69C88.4628 134.85 88.8632 136.025 89.3714 137.123C89.8487 138.237 90.3107 139.366 90.865 140.402C91.3886 141.469 91.9276 142.521 92.5281 143.495C93.6522 145.521 94.9919 147.284 96.347 148.923C97.7637 150.47 99.2266 151.831 100.751 152.882C103.862 154.893 107.049 155.775 110.56 155.543C114.056 155.326 117.813 153.981 121.401 151.97C124.973 149.882 128.392 147.16 131.241 144.067C131.934 143.278 132.611 142.49 133.227 141.685C133.751 140.943 134.151 140.355 134.551 139.613C135.337 138.175 135.983 136.52 136.492 134.587C137.492 130.72 138.062 125.957 138.432 120.729C138.848 115.518 139.202 109.842 140.002 103.949C140.803 98.0569 142.097 91.9171 144.329 85.9164C145.423 82.9161 146.778 79.9777 148.287 77.1165C149.873 74.3018 151.536 71.518 153.507 68.9816C154.431 67.667 155.494 66.4762 156.494 65.2235L157.696 63.7852C158.065 63.3367 158.466 62.8882 158.804 62.4397L162.87 57.2278C165.333 53.8717 166.719 50.6085 166.765 48.9073C166.873 47.9793 166.673 47.0359 165.811 45.8296C164.964 44.6388 163.409 43.4479 161.561 42.4426C157.803 40.4476 152.937 39.2877 148.01 38.8546C146.762 38.7618 145.515 38.669 144.268 38.6381L140.049 38.4835C138.601 38.4525 137.2 38.3288 135.783 38.1896C134.382 38.035 132.95 37.9576 131.579 37.7411C126.005 37.0142 120.569 35.9162 115.195 34.6635C104.447 32.158 93.991 28.9257 83.6738 25.3532C73.4029 21.6569 63.2551 17.6049 53.3999 12.7487L49.7196 10.8928C48.5955 10.367 47.5022 9.82571 46.3473 9.45453C44.0683 8.68126 41.7584 8.26368 39.5564 8.35648C35.1216 8.44927 31.3951 10.7072 28.6387 14.0787L28.4385 13.8777C27.068 15.2541 25.7899 16.8316 24.6658 18.5638C24.1115 19.4298 23.5571 20.3114 23.0798 21.2239C22.587 22.1363 22.1404 23.0952 21.8017 23.9303L21.8171 23.8994Z" fill="#131313"/>
</svg>
